<?xml version="1.0" encoding="utf-8"?>
<!-- Generator: Adobe Illustrator 15.1.0, SVG Export Plug-In . SVG Version: 6.00 Build 0)  -->
<!DOCTYPE svg PUBLIC "-//W3C//DTD SVG 1.1//EN" "http://www.w3.org/Graphics/SVG/1.1/DTD/svg11.dtd">
<svg version="1.1" id="Ebene_1" xmlns="http://www.w3.org/2000/svg" xmlns:xlink="http://www.w3.org/1999/xlink" x="0px" y="0px"
	 width="1511.698px" height="1985.604px" viewBox="0 0 1511.698 1985.604" enable-background="new 0 0 1511.698 1985.604"
	 xml:space="preserve">
<path fill="none" stroke="#323232" stroke-width="40" stroke-miterlimit="10" d="M143.971,833.595
	c-15.701,668.701,525.532,727.899,611.878,727.901c82.655,0.002,593.723-41.198,593.722-713.266S853.504,105.581,755.849,105.581
	C649.504,105.581,159.479,173.119,143.971,833.595z"/>
<path fill="#323232" stroke="#323232" stroke-width="10" stroke-miterlimit="10" d="M821.504,123.432
	c-132,20-173.231,262.747-183.183,376.767c-7.028,80.517-32.359,266.01,84.008,480.048
	c39.298,72.281,177.241,222.074,277.175,228.186c89.434,5.469,103.077-229.477,122-365c16.77-120.099,11.042-250.214,3-372
	c-7-106-61-245-108-277l180.579,133.565c17.779,128.04-4.11,422.2-7.579,542.435c-3,104-43,451-63,543l-79,67
	c-48-56-263.482-213.857-583.848-309.552c-75.152-22.448-205.152-12.448-261.152,5.552l-16.68-74.605
	c27.338-56.437,51.312-110.616,70.35-171.061c19.47-61.818,35.92-132.543,46.667-198c21.887-133.299,46.348-257.133,13.331-389.333
	c-3.68-14.734-9.763-13.389,6.001-30.667c31.28-34.284,108.542-102.345,136-117.333c11.184-6.104,83.189-37.878,82.667-38
	l37.333,0.667c-135,215-175.152,393.673-198.668,510.334c-21.475,106.532-59.601,211.07-21,313c64,169,286,161,462.546,247.324
	c-146.546-159.324-199.015-303.669-235.546-486.324c-48-240-9.659-536.619,2.002-611L821.504,123.432z"/>
<g>
	<path fill="none" stroke="#000000" stroke-width="7" stroke-linecap="round" stroke-linejoin="round" stroke-miterlimit="10" d="
		M499.424,1657.896c-5.499-1.812-27.305-5.776-28.633-3.46c-2.556,4.459,9.549,6.84,11.225,10.514
		c7.13,15.642-11.409,124.847-13.49,126.676c32.051-2.863,44.192-3.036,64.129,0"/>
	<path fill="none" stroke="#000000" stroke-width="7" stroke-linecap="round" stroke-linejoin="round" stroke-miterlimit="10" d="
		M549.421,1686.181c7.125,2.725,5.404,98.298,1.429,105.445"/>
	<path fill="none" stroke="#000000" stroke-width="7" stroke-linecap="round" stroke-linejoin="round" stroke-miterlimit="10" d="
		M622.368,1686.181c7.125,2.725,8.915,98.518,4.939,105.666"/>
	<path fill="none" stroke="#000000" stroke-width="7" stroke-linecap="round" stroke-linejoin="round" stroke-miterlimit="10" d="
		M596.894,1686.721c3.429-1.718-28.062,1.176-24.684,1.554c9.345,1.045,17.593,2.289,14.532,7.94
		c-5.355,9.889-8.521,73.249-15.562,95.411c16.156-0.974,23.498-2.72,36.789,0.739"/>
	<path fill="none" stroke="#000000" stroke-width="7" stroke-linecap="round" stroke-linejoin="round" stroke-miterlimit="10" d="
		M645.78,1792.365c0-74.343,27.328-103.272,31.966-105.645c13.367-6.833,22.848,68.519,17.672,105.645"/>
	<path fill="none" stroke="#000000" stroke-width="7" stroke-linecap="round" stroke-linejoin="round" stroke-miterlimit="10" d="
		M647.841,1784.479c7.981-8.816,27.531-25.001,46.835-25.001"/>
	<g>
		<path fill="none" stroke="#000000" stroke-width="7" stroke-linecap="round" stroke-linejoin="round" stroke-miterlimit="10" d="
			M715.587,1792.096c0-35.951-2.543-69.288-3.349-105.475c10.451,11.771,19.305,18.426,32.213,27.297"/>
		<path fill="none" stroke="#000000" stroke-width="7" stroke-linecap="round" stroke-linejoin="round" stroke-miterlimit="10" d="
			M745.784,1686.621c-1.244,19.69,1.086,82.665,0,105.005"/>
	</g>
	<path fill="none" stroke="#000000" stroke-width="7" stroke-linecap="round" stroke-linejoin="round" stroke-miterlimit="10" d="
		M798.316,1672.452c34.81,27.848,21.193,106.369,26.749,119.174c6.479,0,9.816,0.804,16.288,0
		c12.657-33.732,33.762-101.834,18.324-137.518c-3.753-0.593-13.258,5.997-16.426,7.9c3.741,7.431,8.587,15.458,12.975,18.987"/>
	<path fill="none" stroke="#000000" stroke-width="7" stroke-linecap="round" stroke-linejoin="round" stroke-miterlimit="10" d="
		M866.532,1792.096c-2.553-35.468,16.118-105.81,28.46-105.81c9.493,0,28.798,44.736,21.519,106.109"/>
	<path fill="none" stroke="#000000" stroke-width="7" stroke-linecap="round" stroke-linejoin="round" stroke-miterlimit="10" d="
		M962.539,1688.363c-16.333,0.084-36.865-1.024-47.09-1.418c-1.719,5.536,21.454,9.87,27.278,10.79
		c0.531,10.547,4.679,86.886,6.221,94.66"/>
	<path fill="none" stroke="#000000" stroke-width="7" stroke-linecap="round" stroke-linejoin="round" stroke-miterlimit="10" d="
		M866.532,1784.479c11.371-12.501,41.815-25.001,51.5-25.001"/>
	<path fill="none" stroke="#000000" stroke-width="7" stroke-linecap="round" stroke-linejoin="round" stroke-miterlimit="10" d="
		M1002.27,1688.907c-2.79,0.28-26.315-2.427-26.315,0c0,3.481-18.62,88.291,26.315,103.488"/>
	<path fill="none" stroke="#000000" stroke-width="7" stroke-linecap="round" stroke-linejoin="round" stroke-miterlimit="10" d="
		M1017.144,1792.396c0-11.416,2.288-98.997,2.848-105.45c10.124-0.552,30.251,0.996,31.013,13.671
		c0.76,12.679-21.77,17.616-30.696,19.937"/>
	<path fill="none" stroke="#000000" stroke-width="7" stroke-linecap="round" stroke-linejoin="round" stroke-miterlimit="10" d="
		M975.955,1729.413c6.695,0,8.544,0.333,17.088,0"/>
	<path fill="none" stroke="#000000" stroke-width="7" stroke-linecap="round" stroke-linejoin="round" stroke-miterlimit="10" d="
		M1029.801,1719.92c0.125,24.241,19.294,54.615,32.304,73.733"/>
</g>
</svg>
