<?xml version="1.0" encoding="utf-8"?>
<!-- Generator: Adobe Illustrator 15.1.0, SVG Export Plug-In . SVG Version: 6.00 Build 0)  -->
<!DOCTYPE svg PUBLIC "-//W3C//DTD SVG 1.1//EN" "http://www.w3.org/Graphics/SVG/1.1/DTD/svg11.dtd">
<svg version="1.1" id="Ebene_1" xmlns="http://www.w3.org/2000/svg" xmlns:xlink="http://www.w3.org/1999/xlink" x="0px" y="0px"
	 width="1511.698px" height="1985.604px" viewBox="0 0 1511.698 1985.604" enable-background="new 0 0 1511.698 1985.604"
	 xml:space="preserve">
<path fill="none" stroke="#323232" stroke-width="40" stroke-miterlimit="10" d="M143.971,833.595
	c-15.701,668.701,525.532,727.899,611.878,727.901c82.655,0.002,593.723-41.198,593.722-713.266S865.504,105.581,755.849,105.581
	C635.504,105.581,159.479,173.119,143.971,833.595z"/>
<path fill="#323232" stroke="#323232" stroke-width="10" stroke-miterlimit="10" d="M821.504,123.432
	c-132,20-173.231,262.747-183.183,376.767c-7.028,80.517-32.359,266.01,84.008,480.048
	c39.298,72.281,177.241,222.074,277.175,228.186c89.434,5.469,103.077-229.477,122-365c16.77-120.099,11.042-250.214,3-372
	c-7-106-61-245-108-277l180.579,133.565c17.779,128.04-4.11,422.2-7.579,542.435c-3,104-43,451-63,543l-79,67
	c-48-56-263.482-213.857-583.848-309.552c-75.152-22.448-205.152-12.448-261.152,5.552l-16.68-74.605
	c27.338-56.437,51.312-110.616,70.35-171.061c19.47-61.818,35.92-132.543,46.667-198c21.887-133.299,46.348-257.133,13.331-389.333
	c-3.68-14.734-9.763-13.389,6.001-30.667c31.28-34.284,108.542-102.345,136-117.333c11.184-6.104,83.189-37.878,82.667-38
	l37.333,0.667c-135,215-175.152,393.673-198.668,510.334c-21.475,106.532-59.601,211.07-21,313c64,169,286,161,462.546,247.324
	c-146.546-159.324-199.015-303.669-235.546-486.324c-48-240-9.659-536.619,2.002-611L821.504,123.432z"/>
</svg>
